<?xml version="1.0" standalone="no"?>
<!DOCTYPE svg PUBLIC "-//W3C//DTD SVG 20010904//EN"
 "http://www.w3.org/TR/2001/REC-SVG-20010904/DTD/svg10.dtd">
<svg version="1.0" xmlns="http://www.w3.org/2000/svg"
 width="939.000000pt" height="265.000000pt" viewBox="0 0 939.000000 265.000000"
 preserveAspectRatio="xMidYMid meet">

<g transform="translate(0.000000,265.000000) scale(0.100000,-0.100000)"
fill="#000000" stroke="none">
<path d="M6085 2644 c-137 -13 -244 -29 -345 -50 -253 -52 -358 -94 -676 -270
-243 -135 -404 -194 -625 -229 -57 -9 -234 -19 -454 -25 -646 -17 -898 -34
-1180 -76 -231 -34 -492 -99 -682 -170 -101 -38 -283 -119 -283 -127 0 -5 50
9 246 66 144 42 392 98 559 126 360 60 669 88 1140 101 796 22 850 32 1255
237 311 158 424 206 579 249 222 61 370 78 661 78 212 0 279 -4 396 -22 334
-52 608 -157 999 -382 236 -136 405 -206 578 -239 104 -20 128 -21 583 -14
474 6 475 6 504 -15 l29 -22 8 53 c7 42 6 54 -7 62 -9 6 -120 8 -300 5 -470
-8 -645 -5 -740 13 -183 36 -370 110 -695 278 -426 219 -677 310 -986 354
-108 16 -473 28 -564 19z"/>
<path d="M6512 1772 c-130 -358 -304 -832 -363 -990 -27 -73 -49 -137 -49
-142 0 -6 52 -10 130 -10 78 0 130 4 130 10 0 5 78 222 174 482 95 260 210
571 253 691 l80 217 -131 0 -131 0 -93 -258z"/>
<path d="M7092 2013 c-5 -10 -15 -36 -22 -58 -11 -35 -72 -199 -278 -755 -90
-240 -202 -553 -202 -562 0 -4 57 -8 128 -8 l127 0 92 248 c51 136 135 360
186 497 96 253 219 591 232 633 l6 22 -130 0 c-114 0 -131 -2 -139 -17z"/>
<path d="M7900 1665 c-296 -50 -584 -225 -726 -439 -106 -161 -126 -372 -50
-531 60 -126 152 -207 296 -260 198 -73 510 -8 753 157 32 22 56 42 53 45 -3
3 -65 -15 -138 -40 -164 -57 -276 -77 -428 -77 -334 0 -520 152 -520 426 0
150 58 276 185 405 82 83 173 137 300 178 296 96 609 54 774 -104 145 -138
186 -345 122 -610 -16 -66 -28 -121 -27 -122 4 -4 266 73 361 107 293 103 419
221 469 441 12 53 25 305 17 344 -7 39 -8 37 -20 -42 -34 -229 -120 -427 -224
-518 -83 -73 -312 -177 -441 -201 l-39 -7 7 39 c41 230 45 291 21 393 -74 313
-372 480 -745 416z"/>
</g>
</svg>
